<svg xmlns="http://www.w3.org/2000/svg" version="1.1" xmlns:xlink="http://www.w3.org/1999/xlink" xmlns:svgjs="http://svgjs.dev/svgjs" width="1000" height="146" viewBox="0 0 1000 146"><g transform="matrix(1,0,0,1,-0.6060606060606233,0.07320454285489575)"><svg viewBox="0 0 396 58" data-background-color="#ffffff" preserveAspectRatio="xMidYMid meet" height="146" width="1000" xmlns="http://www.w3.org/2000/svg" xmlns:xlink="http://www.w3.org/1999/xlink"><g id="tight-bounds" transform="matrix(1,0,0,1,0.2400000000000091,-0.029081256750572493)"><svg viewBox="0 0 395.52 58.05816251350115" height="58.05816251350115" width="395.52"><g><svg viewBox="0 0 536.3210636089068 78.72627293289771" height="58.05816251350115" width="395.52"><g transform="matrix(1,0,0,1,140.80106360890676,0)"><svg viewBox="0 0 395.52 78.72627293289771" height="78.72627293289771" width="395.52"><g id="textblocktransform"><svg viewBox="0 0 395.52 78.72627293289771" height="78.72627293289771" width="395.52" id="textblock"><g><svg viewBox="0 0 395.52 78.72627293289771" height="78.72627293289771" width="395.52"><g transform="matrix(1,0,0,1,0,0)"><svg width="395.52" viewBox="3.76 -37.35 194.27 38.67" height="78.72627293289771" data-palette-color="url(#9c70b4b7-7000-4726-8f95-637b82169d4f)"></svg></g></svg></g></svg></g></svg></g><g transform="matrix(1,0,0,1,0,1.5577818182770642)"><svg viewBox="0 0 122.21568 75.61070929634359" height="75.61070929634359" width="122.21568"><g><svg xmlns="http://www.w3.org/2000/svg" xmlns:xlink="http://www.w3.org/1999/xlink" xml:space="preserve" version="1.1" style="shape-rendering:geometricPrecision;text-rendering:geometricPrecision;image-rendering:optimizeQuality;" viewBox="2.6874713466491733 16.915999999999997 74.62505730670166 46.168" x="0" y="0" fill-rule="evenodd" clip-rule="evenodd" height="75.61070929634359" width="122.21568" class="icon-icon-0" data-fill-palette-color="accent" id="icon-0"></svg></g></svg></g></svg></g><defs></defs><mask id="8cd67242-0c29-461d-8f6d-6ea633b32ab0"><g id="SvgjsG1231"><svg viewBox="0 0 395.52 58.05816251350115" height="58.05816251350115" width="395.52"><g><svg viewBox="0 0 536.3210636089068 78.72627293289771" height="58.05816251350115" width="395.52"><g transform="matrix(1,0,0,1,140.80106360890676,0)"><svg viewBox="0 0 395.52 78.72627293289771" height="78.72627293289771" width="395.52"><g id="SvgjsG1230"><svg viewBox="0 0 395.52 78.72627293289771" height="78.72627293289771" width="395.52" id="SvgjsSvg1229"><g><svg viewBox="0 0 395.52 78.72627293289771" height="78.72627293289771" width="395.52"><g transform="matrix(1,0,0,1,0,0)"><svg width="395.52" viewBox="3.76 -37.35 194.27 38.67" height="78.72627293289771" data-palette-color="url(#9c70b4b7-7000-4726-8f95-637b82169d4f)"><path d="M38.48-17.53L38.48-17.53Q38.48-16.11 38.48-14.55 38.48-12.99 38.13-11.57L38.13-11.57Q37.89-10.5 37.6-9.69 37.3-8.89 36.87-8.23 36.43-7.57 35.79-7.01 35.16-6.45 34.23-5.91L34.23-5.91Q33.94-5.71 32.67-5.4 31.4-5.08 29.52-4.64 27.64-4.2 25.32-3.71 23-3.22 20.58-2.76 18.16-2.29 15.8-1.83 13.43-1.37 11.5-1 9.57-0.63 8.23-0.37 6.88-0.1 6.45-0.05L6.45-0.05Q5.62-8.98 4.88-17.77 4.15-26.56 3.76-35.55L3.76-35.55Q7.86-35.4 11.91-35.23 15.97-35.06 20.12-34.77L20.12-34.77Q21.19-34.67 23.27-34.52 25.34-34.38 27.59-34.11 29.83-33.84 31.81-33.45 33.79-33.06 34.67-32.47L34.67-32.47Q35.79-31.64 36.67-30.22 37.55-28.81 37.94-27.44L37.94-27.44Q38.13-26.81 38.23-25.46 38.33-24.12 38.38-22.61 38.43-21.09 38.45-19.68 38.48-18.26 38.48-17.53ZM26.32-16.89L26.32-16.89Q26.32-17.43 26.29-18.04 26.27-18.65 26.22-19.19L26.22-19.19Q26.12-19.97 25.95-20.83 25.78-21.68 25.49-22.49 25.2-23.29 24.76-24 24.32-24.71 23.68-25.24L23.68-25.24Q23.34-25.54 22.02-25.71 20.7-25.88 19.14-25.95 17.58-26.03 16.21-26.05 14.84-26.07 14.45-26.07L14.45-26.07 12.45-26.07Q12.84-22.27 13.16-18.58 13.48-14.89 13.72-11.08L13.72-11.08Q14.65-11.13 16.38-11.35 18.12-11.57 19.92-11.94 21.73-12.3 23.29-12.87 24.85-13.43 25.54-14.21L25.54-14.21Q26.07-14.79 26.2-15.45 26.32-16.11 26.32-16.89ZM78.61-22.02L78.61-22.02Q78.61-17.92 78.32-13.87 78.02-9.81 77.73-5.76L77.73-5.76Q72.26-5.27 66.84-4.93 61.42-4.59 55.95-4.59L55.95-4.59Q55.47-4.59 54.15-4.61 52.83-4.64 51.36-4.71 49.9-4.79 48.58-4.91 47.26-5.03 46.82-5.27L46.82-5.27Q45.21-6.15 44.58-7.5 43.94-8.84 43.94-10.55L43.94-10.55Q43.94-11.13 43.99-12.11 44.04-13.09 44.19-14.16 44.33-15.23 44.58-16.16 44.82-17.09 45.16-17.53L45.16-17.53Q45.6-18.12 47.17-18.53 48.73-18.95 50.9-19.19 53.07-19.43 55.59-19.58 58.1-19.73 60.4-19.8 62.69-19.87 64.5-19.87 66.31-19.87 67.09-19.87L67.09-19.87Q67.23-20.95 67.23-21.97L67.23-21.97Q67.23-22.07 67.23-22.49 67.23-22.9 67.19-23L67.19-23Q67.04-23.29 66.26-23.49 65.48-23.68 64.33-23.78 63.18-23.88 61.84-23.95 60.5-24.02 59.23-24.02 57.96-24.02 56.98-24.02 56-24.02 55.56-24.02L55.56-24.02Q52.49-24.02 49.41-23.9 46.34-23.78 43.26-23.68L43.26-23.68Q43.45-25.54 43.58-27.44 43.7-29.35 43.6-31.2L43.6-31.2Q47.17-31.84 50.75-32.1 54.34-32.37 58.01-32.37L58.01-32.37Q59.32-32.37 60.89-32.35 62.45-32.32 64.01-32.25 65.57-32.18 67.11-32.03 68.65-31.88 69.97-31.64L69.97-31.64Q71.34-31.4 72.68-30.76 74.02-30.13 75.19-29.2 76.36-28.27 77.24-27.08 78.12-25.88 78.51-24.51L78.51-24.51Q78.56-24.37 78.59-24.02 78.61-23.68 78.61-23.27 78.61-22.85 78.61-22.51 78.61-22.17 78.61-22.02ZM67.72-10.55L67.72-10.55 67.72-16.8Q66.31-16.85 64.89-16.87 63.47-16.89 62.06-16.89L62.06-16.89Q61.77-16.89 60.42-16.87 59.08-16.85 57.54-16.75 56-16.65 54.73-16.5 53.46-16.36 53.27-16.06L53.27-16.06Q53.02-15.67 52.95-15.26 52.88-14.84 52.88-14.4L52.88-14.4Q52.88-14.06 52.93-13.48 52.98-12.89 53.1-12.26 53.22-11.62 53.37-11.08 53.51-10.55 53.76-10.3L53.76-10.3Q53.95-10.06 54.42-9.94 54.88-9.81 55.42-9.74 55.95-9.67 56.49-9.64 57.03-9.62 57.32-9.62L57.32-9.62Q58.49-9.62 59.84-9.72 61.18-9.81 62.57-9.94 63.96-10.06 65.28-10.23 66.6-10.4 67.72-10.55ZM112.35-14.5L112.35-14.5Q112.35-13.18 112.35-11.84 112.35-10.5 112.25-9.18L112.25-9.18 101.36-8.5Q101.56-11.04 101.68-13.53 101.8-16.02 101.8-18.6L101.8-18.6Q101.8-18.85 101.8-19.43 101.8-20.02 101.75-20.68 101.7-21.34 101.66-21.92 101.61-22.51 101.56-22.75L101.56-22.75Q101.31-23.44 101.04-23.93 100.78-24.41 100.41-24.71 100.04-25 99.51-25.12 98.97-25.24 98.19-25.24L98.19-25.24Q97.6-25.24 96.7-25.15 95.8-25.05 94.87-24.85 93.94-24.66 93.11-24.37 92.28-24.07 91.94-23.68L91.94-23.68 91.84-9.28Q91.74-9.47 91.28-9.47 90.82-9.47 90.62-9.47L90.62-9.47Q89.16-9.47 87.59-9.35 86.03-9.23 84.57-9.03L84.57-9.03Q83.93-14.79 83.44-20.51 82.95-26.22 82.32-31.98L82.32-31.98Q83.3-32.03 84.27-32.06 85.25-32.08 86.23-32.08L86.23-32.08Q87.5-32.08 88.79-32.01 90.08-31.93 91.35-31.88L91.35-31.88 91.69-28.13Q93.06-30.37 95.41-31.88 97.75-33.4 100.43-33.4L100.43-33.4Q101.8-33.4 103.27-33.25 104.73-33.11 106.07-32.67 107.42-32.23 108.61-31.45 109.81-30.66 110.64-29.44L110.64-29.44Q111.03-28.86 111.3-27.71 111.57-26.56 111.76-25.12 111.96-23.68 112.08-22.07 112.2-20.46 112.25-18.99 112.3-17.53 112.32-16.33 112.35-15.14 112.35-14.5ZM125.87-32.67L125.87-32.67Q125.87-31.69 125.46-30.83 125.04-29.98 124.33-29.35 123.63-28.71 122.75-28.34 121.87-27.98 120.99-27.98L120.99-27.98Q120.01-27.98 119.16-28.42 118.3-28.86 117.67-29.54 117.03-30.22 116.69-31.13 116.35-32.03 116.35-32.96L116.35-32.96Q116.35-33.89 116.72-34.69 117.08-35.5 117.69-36.08 118.3-36.67 119.11-37.01 119.91-37.35 120.84-37.35L120.84-37.35Q121.77-37.35 122.67-36.99 123.58-36.62 124.28-35.96 124.99-35.3 125.43-34.45 125.87-33.59 125.87-32.67ZM127.87-24.37L127.87-24.37Q127.63-21.78 127.48-19.24 127.34-16.7 127.19-14.16L127.19-14.16Q126.99-11.18 126.53-8.25 126.07-5.32 125.48-2.39L125.48-2.39 118.01-1.61Q118.01-3.17 118.03-4.69 118.06-6.2 118.06-7.76L118.06-7.76Q118.06-11.77 117.91-15.77 117.77-19.78 117.62-23.78L117.62-23.78Q120.21-23.88 122.72-24.07 125.24-24.27 127.87-24.37ZM160.49-33.89L160.49-33.89 160.2-27.54Q158.68-27.64 157.17-27.69 155.65-27.73 154.14-27.73L154.14-27.73Q153.51-27.73 152.33-27.71 151.16-27.69 149.72-27.64 148.28-27.59 146.77-27.49 145.25-27.39 143.98-27.29 142.71-27.2 141.84-27.05 140.96-26.9 140.76-26.76L140.76-26.76Q140.13-26.12 140.13-25.29L140.13-25.29Q140.13-24.76 140.42-24.41L140.42-24.41Q140.52-24.27 141.49-24.17 142.47-24.07 143.89-24 145.3-23.93 146.99-23.9 148.67-23.88 150.21-23.85 151.75-23.83 152.94-23.78 154.14-23.73 154.63-23.68L154.63-23.68Q156.48-23.44 157.58-22.61 158.68-21.78 159.27-20.53 159.85-19.29 160.02-17.72 160.2-16.16 160.2-14.55L160.2-14.55Q160.2-13.77 160.07-12.7 159.95-11.62 159.71-10.55 159.46-9.47 159-8.54 158.53-7.62 157.9-7.08L157.9-7.08Q157.17-6.49 155.53-6.1 153.9-5.71 152.02-5.47 150.14-5.22 148.38-5.13 146.62-5.03 145.69-5.03L145.69-5.03Q142.47-5.03 139.25-5.4 136.03-5.76 132.85-6.2L132.85-6.2 132.85-15.53Q135.93-14.89 139.03-14.79 142.13-14.7 145.25-14.45L145.25-14.45Q145.89-14.4 147.18-14.38 148.48-14.36 149.79-14.43 151.11-14.5 152.19-14.75 153.26-14.99 153.51-15.43L153.51-15.43Q153.6-15.58 153.6-15.77 153.6-15.97 153.6-16.11L153.6-16.11Q153.6-16.5 153.53-17.11 153.46-17.72 153.21-18.07L153.21-18.07Q153.16-18.12 152.87-18.14 152.58-18.16 152.53-18.16L152.53-18.16Q149.79-18.31 147.06-18.33 144.33-18.36 141.54-18.6L141.54-18.6Q140.42-18.7 139.27-18.82 138.12-18.95 137-19.19L137-19.19Q136.07-19.38 135.32-19.63 134.56-19.87 134-20.26 133.44-20.65 133.05-21.26 132.66-21.88 132.51-22.9L132.51-22.9Q132.41-23.24 132.41-23.56 132.41-23.88 132.41-24.27L132.41-24.27Q132.41-25.15 132.51-26.27 132.61-27.39 132.88-28.52 133.14-29.64 133.56-30.64 133.97-31.64 134.66-32.28L134.66-32.28Q135.1-32.71 136.22-33.01 137.34-33.3 138.81-33.52 140.27-33.74 141.93-33.89 143.59-34.03 145.13-34.11 146.67-34.18 147.91-34.2 149.16-34.23 149.79-34.23L149.79-34.23Q152.53-34.23 155.19-34.13 157.85-34.03 160.49-33.89ZM198.03-19.04L198.03-19.04Q198.03-17.24 197.81-15.41 197.59-13.57 197.35-11.77L197.35-11.77Q196.96-8.59 196.47-5.49 195.98-2.39 195.5 0.78L195.5 0.78Q193.1 0.83 190.81 0.98 188.51 1.12 186.17 1.32L186.17 1.32Q186.17-2.25 186.17-5.74 186.17-9.23 186.02-12.74L186.02-12.74Q186.02-13.43 186-14.5 185.97-15.58 185.78-16.26L185.78-16.26Q185.49-17.38 185.05-17.8 184.61-18.21 183.34-18.21L183.34-18.21Q182.46-18.21 181.29-18.02 180.11-17.82 178.89-17.53 177.67-17.24 176.57-16.87 175.48-16.5 174.74-16.11L174.74-16.11Q174.35-12.16 173.79-8.25 173.23-4.35 173.08-0.34L173.08-0.34 166.2-0.68Q165.66-9.47 165.17-18.19 164.68-26.9 164.25-35.69L164.25-35.69 174.99-36.38Q174.89-33.15 174.79-29.96 174.69-26.76 174.6-23.54L174.6-23.54Q175.52-24.32 176.7-24.73 177.87-25.15 179.11-25.29 180.36-25.44 181.63-25.44 182.9-25.44 184.07-25.44L184.07-25.44Q185.83-25.44 188.05-25.32 190.27-25.2 192.3-24.63 194.32-24.07 195.89-22.85 197.45-21.63 197.99-19.43L197.99-19.43Q198.03-19.34 198.03-19.24 198.03-19.14 198.03-19.04Z" opacity="1" transform="matrix(1,0,0,1,0,0)" fill="white" class="wordmark-text-0" id="SvgjsPath1228"></path></svg></g></svg></g></svg></g></svg></g><g transform="matrix(1,0,0,1,0,1.5577818182770642)"><svg viewBox="0 0 122.21568 75.61070929634359" height="75.61070929634359" width="122.21568"><g><svg xmlns="http://www.w3.org/2000/svg" xmlns:xlink="http://www.w3.org/1999/xlink" xml:space="preserve" version="1.1" style="shape-rendering:geometricPrecision;text-rendering:geometricPrecision;image-rendering:optimizeQuality;" viewBox="2.6874713466491733 16.915999999999997 74.62505730670166 46.168" x="0" y="0" fill-rule="evenodd" clip-rule="evenodd" height="75.61070929634359" width="122.21568" class="icon-icon-0" data-fill-palette-color="accent" id="SvgjsSvg1227"></svg></g></svg></g></svg></g><defs><mask></mask></defs></svg></g></mask><linearGradient x1="0" x2="1" y1="0.5" y2="0.5" id="9c70b4b7-7000-4726-8f95-637b82169d4f"><stop stop-color="#f00b51" offset="0"></stop><stop stop-color="#730062" offset="1"></stop></linearGradient><rect width="395.52" height="58.05816251350115" fill="url(#9c70b4b7-7000-4726-8f95-637b82169d4f)" mask="url(#8cd67242-0c29-461d-8f6d-6ea633b32ab0)" data-fill-palette-color="primary"></rect><mask id="a9970967-f24f-4ed0-a0a5-2538b55bf466"><g id="SvgjsG1240"><svg viewBox="0 0 395.52 58.05816251350115" height="58.05816251350115" width="395.52"><g><svg viewBox="0 0 536.3210636089068 78.72627293289771" height="58.05816251350115" width="395.52"><g transform="matrix(1,0,0,1,140.80106360890676,0)"><svg viewBox="0 0 395.52 78.72627293289771" height="78.72627293289771" width="395.52"><g id="SvgjsG1239"><svg viewBox="0 0 395.52 78.72627293289771" height="78.72627293289771" width="395.52" id="SvgjsSvg1238"><g><svg viewBox="0 0 395.52 78.72627293289771" height="78.72627293289771" width="395.52"><g transform="matrix(1,0,0,1,0,0)"><svg width="395.52" viewBox="3.76 -37.35 194.27 38.67" height="78.72627293289771" data-palette-color="url(#9c70b4b7-7000-4726-8f95-637b82169d4f)"></svg></g></svg></g></svg></g></svg></g><g transform="matrix(1,0,0,1,0,1.5577818182770642)"><svg viewBox="0 0 122.21568 75.61070929634359" height="75.61070929634359" width="122.21568"><g><svg xmlns="http://www.w3.org/2000/svg" xmlns:xlink="http://www.w3.org/1999/xlink" xml:space="preserve" version="1.1" style="shape-rendering:geometricPrecision;text-rendering:geometricPrecision;image-rendering:optimizeQuality;" viewBox="2.6874713466491733 16.915999999999997 74.62505730670166 46.168" x="0" y="0" fill-rule="evenodd" clip-rule="evenodd" height="75.61070929634359" width="122.21568" class="icon-icon-0" data-fill-palette-color="accent" id="SvgjsSvg1237"><g fill="white"><path class="" d="M35.432 40.861l0 1.207c0 0.381-0.176 0.707-0.494 0.916-0.318 0.208-0.688 0.24-1.036 0.089l-10.679-4.629c-0.409-0.177-0.659-0.559-0.659-1.005l0-1.663c0-0.447 0.25-0.828 0.659-1.005l10.679-4.629c0.348-0.151 0.718-0.119 1.036 0.089 0.318 0.209 0.494 0.535 0.494 0.916l0 1.228c0 0.461-0.27 0.855-0.701 1.021l-8.266 3.185 8.274 3.261c0.427 0.168 0.693 0.559 0.693 1.019z m-32.064 16.5l28.146 0c0.374 0 0.68 0.305 0.68 0.68l0 0.5c0 0.374 0.306 0.68 0.68 0.68l14.252 0c0.374 0 0.68-0.306 0.68-0.68l0-0.5c0-0.375 0.305-0.68 0.68-0.68l28.146 0c0.197 0 0.367 0.074 0.5 0.218 0.134 0.145 0.194 0.32 0.178 0.516-0.224 2.786-2.569 4.989-5.41 4.989l-63.8 0c-2.841 0-5.185-2.203-5.41-4.989-0.016-0.196 0.044-0.371 0.178-0.516 0.133-0.144 0.303-0.218 0.5-0.218z m11.429-40.445l51.043 0c1.492 0 2.713 1.221 2.713 2.714l0 36.459-56.469 0 0-36.459c0-1.493 1.22-2.714 2.713-2.714z m0.848 3.752l49.347 0 0 31.669-49.347 0 0-31.669z m27.746 8.737l-3.582 14.746c-0.122 0.489-0.227 0.874-0.314 1.153-0.092 0.28-0.227 0.503-0.411 0.66-0.183 0.157-0.45 0.236-0.799 0.236-0.87 0-1.306-0.376-1.306-1.127 0-0.197 0.087-0.686 0.257-1.472l3.569-14.747c0.188-0.786 0.367-1.323 0.537-1.612 0.175-0.292 0.507-0.437 1.001-0.437 0.428 0 0.755 0.101 0.978 0.306 0.227 0.205 0.341 0.49 0.341 0.848 0 0.262-0.092 0.742-0.271 1.446z m14.023 9.039l-10.678 4.651c-0.349 0.152-0.719 0.121-1.038-0.088-0.318-0.208-0.494-0.535-0.494-0.915l0-1.204c0-0.46 0.267-0.851 0.694-1.02l8.3-3.261-8.295-3.21c-0.43-0.167-0.699-0.56-0.699-1.021l0-1.179c0-0.38 0.176-0.706 0.493-0.915 0.317-0.209 0.687-0.241 1.036-0.09l10.678 4.61c0.41 0.177 0.661 0.559 0.661 1.005l0 1.634c0 0.445-0.249 0.826-0.658 1.003z" fill="white"></path></g></svg></g></svg></g></svg></g><defs><mask></mask></defs><mask><g id="SvgjsG1236"><svg viewBox="0 0 395.52 58.05816251350115" height="58.05816251350115" width="395.52"><g><svg viewBox="0 0 536.3210636089068 78.72627293289771" height="58.05816251350115" width="395.52"><g transform="matrix(1,0,0,1,140.80106360890676,0)"><svg viewBox="0 0 395.52 78.72627293289771" height="78.72627293289771" width="395.52"><g id="SvgjsG1235"><svg viewBox="0 0 395.52 78.72627293289771" height="78.72627293289771" width="395.52" id="SvgjsSvg1234"><g><svg viewBox="0 0 395.52 78.72627293289771" height="78.72627293289771" width="395.52"><g transform="matrix(1,0,0,1,0,0)"><svg width="395.52" viewBox="3.76 -37.35 194.27 38.67" height="78.72627293289771" data-palette-color="url(#9c70b4b7-7000-4726-8f95-637b82169d4f)"></svg></g></svg></g></svg></g></svg></g><g transform="matrix(1,0,0,1,0,1.5577818182770642)"><svg viewBox="0 0 122.21568 75.61070929634359" height="75.61070929634359" width="122.21568"><g><svg xmlns="http://www.w3.org/2000/svg" xmlns:xlink="http://www.w3.org/1999/xlink" xml:space="preserve" version="1.1" style="shape-rendering:geometricPrecision;text-rendering:geometricPrecision;image-rendering:optimizeQuality;" viewBox="2.6874713466491733 16.915999999999997 74.62505730670166 46.168" x="0" y="0" fill-rule="evenodd" clip-rule="evenodd" height="75.61070929634359" width="122.21568" class="icon-icon-0" data-fill-palette-color="accent" id="SvgjsSvg1232"></svg></g></svg></g></svg></g><defs><mask></mask></defs></svg></g></mask></svg></g></mask><linearGradient x1="0" x2="1" y1="0.5" y2="0.5" id="b8b794ba-7a52-4adc-beb4-eb8874909148"><stop stop-color="#f00b51" offset="0"></stop><stop stop-color="#730062" offset="1"></stop></linearGradient><rect width="395.52" height="58.05816251350115" fill="url(#b8b794ba-7a52-4adc-beb4-eb8874909148)" mask="url(#a9970967-f24f-4ed0-a0a5-2538b55bf466)" data-fill-palette-color="accent"></rect></svg><rect width="395.52" height="58.05816251350115" fill="none" stroke="none" visibility="hidden"></rect></g></svg></g></svg>