<svg xmlns="http://www.w3.org/2000/svg" version="1.1" xmlns:xlink="http://www.w3.org/1999/xlink" xmlns:svgjs="http://svgjs.dev/svgjs" width="1000" height="194" viewBox="0 0 1000 194"><g transform="matrix(1,0,0,1,-0.6060376909445608,-0.31563452003062764)"><svg viewBox="0 0 396 77" data-background-color="#ffffff" preserveAspectRatio="xMidYMid meet" height="194" width="1000" xmlns="http://www.w3.org/2000/svg" xmlns:xlink="http://www.w3.org/1999/xlink"><g id="tight-bounds" transform="matrix(1,0,0,1,0.23999092561405178,0.12527761877504417)"><svg viewBox="0 0 395.52 76.74944476244991" height="76.74944476244991" width="395.52"><g><svg viewBox="0 0 395.52 76.74944476244991" height="76.74944476244991" width="395.52"><g><svg viewBox="0 0 395.52 76.74944476244991" height="76.74944476244991" width="395.52"><g id="textblocktransform"><svg viewBox="0 0 395.52 76.74944476244991" height="76.74944476244991" width="395.52" id="textblock"><g><svg viewBox="0 0 395.52 76.74944476244991" height="76.74944476244991" width="395.52"><g transform="matrix(1,0,0,1,0,0)"><svg width="395.52" viewBox="2.2699999809265137 -40.43000030517578 213.239990234375 41.380001068115234" height="76.74944476244991" data-palette-color="#313bac"><path d="M24.8-10.55L12.82-10.55 12.82-29.88Q12.82-29.88 24.8-29.88L24.8-29.88Q27.71-29.88 29.8-27.04 31.88-24.19 31.88-20.21L31.88-20.21Q31.88-16.21 29.8-13.38 27.71-10.55 24.8-10.55L24.8-10.55ZM14.58-28.13L14.58-12.3 24.8-12.3Q26.98-12.3 28.53-14.62 30.08-16.94 30.08-20.21L30.08-20.21Q30.08-23.51 28.53-25.82 26.98-28.13 24.8-28.13L24.8-28.13 14.58-28.13ZM11.06-31.64L11.06-8.79 24.8-8.79Q28.44-8.79 31.07-12.15 33.69-15.5 33.69-20.21L33.69-20.21Q33.69-23.32 32.48-25.95 31.27-28.59 29.24-30.11 27.2-31.64 24.8-31.64L24.8-31.64 11.06-31.64ZM24.8-7.03L9.3-7.03 9.3-33.4 24.8-33.4Q27.66-33.4 30.13-31.64 32.59-29.88 34.05-26.84 35.5-23.8 35.5-20.21L35.5-20.21Q35.5-16.65 34.05-13.6 32.59-10.55 30.13-8.79 27.66-7.03 24.8-7.03L24.8-7.03ZM7.54-35.16L7.54-5.27 24.8-5.27Q28.15-5.27 31.02-7.28 33.89-9.28 35.6-12.72 37.3-16.16 37.3-20.21L37.3-20.21Q37.3-24.24 35.6-27.7 33.89-31.15 31.01-33.15 28.13-35.16 24.8-35.16L24.8-35.16 7.54-35.16ZM24.8-3.52L5.79-3.52 5.79-36.91 24.8-36.91Q28.61-36.91 31.91-34.68 35.21-32.45 37.16-28.59 39.11-24.73 39.11-20.21 39.11-15.7 37.16-11.84 35.21-7.98 31.91-5.75 28.61-3.52 24.8-3.52L24.8-3.52ZM4.03-38.67L4.03-1.76 24.8-1.76Q28-1.76 30.98-3.22 33.96-4.69 36.13-7.15 38.31-9.62 39.61-13.05 40.92-16.48 40.92-20.21 40.92-23.95 39.61-27.37 38.31-30.79 36.13-33.26 33.96-35.74 30.98-37.21 28-38.67 24.8-38.67L24.8-38.67 4.03-38.67ZM24.8 0L24.8 0 2.27 0 2.27-40.43 24.8-40.43Q29.57-40.43 33.69-37.72 37.82-35.01 40.27-30.35 42.72-25.68 42.72-20.21L42.72-20.21Q42.72-16.11 41.27-12.37 39.82-8.62 37.4-5.91 34.99-3.2 31.68-1.6 28.37 0 24.8 0ZM71.53 0L71.53-17.33Q71.53-20.46 69.6-22.17 67.67-23.88 64.5-23.88L64.5-23.88Q61.81-23.88 59.89-22.02 57.96-20.17 57.96-17.58L57.96-17.58Q57.96-16.11 58.35-14.95 58.74-13.79 59.41-13.02 60.08-12.26 61.01-11.76 61.94-11.25 62.95-11.04 63.96-10.82 65.11-10.82L65.11-10.82Q67.89-10.82 70.19-12.18L70.19-12.18 70.19-10.42Q67.82-9.18 65.09-9.18L65.09-9.18Q63.33-9.18 61.78-9.66 60.23-10.13 58.96-11.1 57.69-12.06 56.94-13.73 56.2-15.41 56.2-17.58L56.2-17.58Q56.2-20.95 58.57-23.29 60.94-25.63 64.5-25.63L64.5-25.63Q68.43-25.63 70.86-23.43 73.29-21.22 73.29-17.33L73.29-17.33 73.29 0 71.53 0ZM76.8-17.33L76.8-17.33 76.8 0 75.05 0 75.05-17.33Q75.05-21.95 72.09-24.67 69.14-27.39 64.5-27.39L64.5-27.39Q60.2-27.39 57.32-24.54 54.44-21.68 54.44-17.58L54.44-17.58Q54.44-15.09 55.31-13.11 56.17-11.13 57.66-9.94 59.15-8.74 61-8.12 62.84-7.5 64.89-7.5L64.89-7.5Q67.67-7.5 70.19-8.79L70.19-8.79 70.19-6.93Q67.55-5.83 64.87-5.83L64.87-5.83Q62.45-5.83 60.28-6.58 58.1-7.32 56.39-8.75 54.69-10.18 53.68-12.46 52.68-14.75 52.68-17.58L52.68-17.58Q52.68-22.39 56.09-25.77 59.49-29.15 64.5-29.15L64.5-29.15Q68.02-29.15 70.8-27.72 73.58-26.29 75.19-23.58 76.8-20.87 76.8-17.33ZM80.32-17.33L80.32-17.33 80.32 0 78.56 0 78.56-17.33Q78.56-21.36 76.72-24.48 74.88-27.59 71.68-29.25 68.48-30.91 64.5-30.91L64.5-30.91Q60.72-30.91 57.59-29.11 54.47-27.32 52.7-24.27 50.93-21.22 50.93-17.58L50.93-17.58Q50.93-14.45 52.07-11.88 53.22-9.3 55.16-7.64 57.1-5.98 59.58-5.07 62.06-4.15 64.77-4.15L64.77-4.15Q67.53-4.15 70.19-5.3L70.19-5.3 70.19-3.52Q67.4-2.47 64.72-2.47L64.72-2.47Q60.5-2.47 56.96-4.37 53.42-6.27 51.29-9.77 49.17-13.26 49.17-17.58L49.17-17.58Q49.17-20.65 50.35-23.44 51.54-26.22 53.56-28.25 55.59-30.27 58.44-31.47 61.3-32.67 64.5-32.67L64.5-32.67Q68.97-32.67 72.57-30.76 76.17-28.86 78.24-25.34 80.32-21.83 80.32-17.33ZM83.84-17.33L83.84-17.33 83.84 0 82.08 0 82.08-17.33Q82.08-22.31 79.76-26.23 77.44-30.15 73.44-32.29 69.43-34.42 64.5-34.42L64.5-34.42Q59.76-34.42 55.83-32.15 51.9-29.88 49.66-26.01 47.41-22.14 47.41-17.58L47.41-17.58Q47.41-14.58 48.37-11.88 49.34-9.18 51.01-7.17 52.68-5.15 54.87-3.69 57.05-2.22 59.58-1.46 62.11-0.71 64.72-0.71L64.72-0.71Q67.6-0.71 70.19-1.81L70.19-1.81 70.19 0Q67.48 0.95 64.62 0.95L64.62 0.95Q61.67 0.95 58.87 0.12 56.08-0.71 53.7-2.33 51.32-3.96 49.51-6.16 47.7-8.37 46.68-11.33 45.65-14.28 45.65-17.58L45.65-17.58Q45.65-21.36 47.08-24.79 48.51-28.22 50.99-30.73 53.46-33.23 56.99-34.7 60.52-36.18 64.5-36.18L64.5-36.18Q68.55-36.18 72.12-34.81 75.68-33.45 78.27-31.02 80.86-28.59 82.35-25.05 83.84-21.51 83.84-17.33ZM115.91-35.16L115.91-14.18 114.16-17.38 114.16-35.16 115.91-35.16ZM119.43-35.16L119.43-8.11 117.67-11.08 117.67-35.16 119.43-35.16ZM95.21 0L95.21-20.97 96.97-17.77 96.97 0 95.21 0ZM91.69 0L91.69-27.29 93.45-24.07 93.45 0 91.69 0ZM112.67 0L92.3-35.16 94.36-35.16 114.72 0 112.67 0ZM116.77 0L96.45-35.16 98.53-35.16 118.87 0 116.77 0ZM120.87 0L100.58-35.16 102.63-35.16 121.19-3.05 121.19-35.16 122.94-35.16 122.94 0 120.87 0ZM108.54 0L89.94-32.13 89.94 0 88.18 0 88.18-35.16 90.28-35.16 110.57 0 108.54 0ZM138.08 0L138.08-35.16 139.84-35.16 139.84 0 138.08 0ZM134.56 0L134.56-35.16 136.32-35.16 136.32 0 134.56 0ZM131.05 0L131.05-35.16 132.81-35.16 132.81 0 131.05 0ZM127.53 0L127.53-35.16 129.29-35.16 129.29 0 127.53 0ZM160.59-16.72L160.59-16.72 157.8-16.72Q152.68-16.72 149.92-18.81 147.16-20.9 147.16-24.56L147.16-24.56Q147.16-27.98 150.41-30.26 153.65-32.54 159.51-32.54L159.51-32.54Q163.42-32.54 166.8-31.47 170.18-30.4 172.43-28.44L172.43-28.44 171.06-27.34Q169.06-28.98 166.03-29.88 163-30.79 159.51-30.79L159.51-30.79Q154.36-30.79 151.64-29.03 148.92-27.27 148.92-24.56L148.92-24.56Q148.92-21.63 151.15-20.06 153.38-18.48 157.8-18.48L157.8-18.48 160.49-18.48Q165.69-18.48 168.46-16.39 171.23-14.31 171.23-10.64L171.23-10.64Q171.23-7.23 167.98-4.94 164.74-2.66 158.88-2.66L158.88-2.66Q154.97-2.66 151.59-3.74 148.21-4.81 145.96-6.76L145.96-6.76 147.33-7.86Q149.33-6.23 152.36-5.32 155.39-4.42 158.88-4.42L158.88-4.42Q164.03-4.42 166.75-6.18 169.47-7.93 169.47-10.64L169.47-10.64Q169.47-13.57 167.24-15.15 165-16.72 160.59-16.72ZM160.59-13.21L160.59-13.21 157.8-13.21Q151.02-13.21 147.33-16.3 143.64-19.38 143.64-24.56L143.64-24.56Q143.64-26.93 144.69-29 145.74-31.08 147.71-32.65 149.67-34.23 152.72-35.14 155.78-36.06 159.51-36.06L159.51-36.06Q164.22-36.06 168.32-34.63 172.43-33.2 175.16-30.64L175.16-30.64 173.74-29.59Q171.25-31.84 167.52-33.07 163.78-34.3 159.51-34.3L159.51-34.3Q152.92-34.3 149.16-31.52 145.4-28.74 145.4-24.56L145.4-24.56Q145.4-20.14 148.62-17.55 151.85-14.97 157.8-14.97L157.8-14.97 160.49-14.97Q167.71-14.97 167.71-10.64L167.71-10.64Q167.71-8.69 165.51-7.43 163.3-6.18 158.88-6.18L158.88-6.18Q155.78-6.18 153.12-6.9 150.45-7.62 148.72-8.96L148.72-8.96 150.11-10.03Q153.16-7.93 158.88-7.93L158.88-7.93Q162.54-7.93 164.25-8.69 165.96-9.45 165.96-10.64L165.96-10.64Q165.96-12.04 164.76-12.62 163.56-13.21 160.59-13.21ZM160.59-20.24L160.59-20.24 157.8-20.24Q150.67-20.24 150.67-24.56L150.67-24.56Q150.67-26.51 152.88-27.77 155.09-29.03 159.51-29.03L159.51-29.03Q162.61-29.03 165.27-28.31 167.93-27.59 169.67-26.25L169.67-26.25 168.28-25.17Q165.22-27.27 159.51-27.27L159.51-27.27Q155.85-27.27 154.14-26.51 152.43-25.76 152.43-24.56L152.43-24.56Q152.43-23.17 153.63-22.58 154.82-22 157.8-22L157.8-22 160.59-22Q167.37-22 171.06-18.91 174.75-15.82 174.75-10.64L174.75-10.64Q174.75-8.28 173.7-6.2 172.65-4.13 170.68-2.55 168.72-0.98 165.66-0.06 162.61 0.85 158.88 0.85L158.88 0.85Q154.16 0.85 150.06-0.57 145.96-2 143.23-4.57L143.23-4.57 144.64-5.62Q147.13-3.37 150.87-2.14 154.6-0.9 158.88-0.9L158.88-0.9Q165.47-0.9 169.23-3.69 172.99-6.47 172.99-10.64L172.99-10.64Q172.99-15.06 169.77-17.65 166.54-20.24 160.59-20.24ZM213.76 0L213.76-35.16 215.51-35.16 215.51 0 213.76 0ZM178.58 0L178.58-35.16 180.33-35.16 180.33 0 178.58 0ZM210.24 0L210.24-35.16 212-35.16 212 0 210.24 0ZM206.73 0L206.73-35.16 208.48-35.16 208.48 0 206.73 0ZM203.21-22.85L203.21-35.16 204.97-35.16 204.97 0 203.21 0 203.21-14.06 190.88-14.06 190.88 0 189.12 0 189.12-35.16 190.88-35.16 190.88-22.85 203.21-22.85ZM185.61 0L185.61-35.16 187.37-35.16 187.37 0 185.61 0ZM182.09 0L182.09-35.16 183.85-35.16 183.85 0 182.09 0ZM190.88-15.82L203.21-15.82 203.21-17.58 190.88-17.58 190.88-15.82ZM190.88-19.34L203.21-19.34 203.21-21.09 190.88-21.09 190.88-19.34Z" opacity="1" transform="matrix(1,0,0,1,0,0)" fill="#313bac" class="wordmark-text-0" data-fill-palette-color="primary" id="text-0"></path></svg></g></svg></g></svg></g></svg></g></svg></g><defs></defs></svg><rect width="395.52" height="76.74944476244991" fill="none" stroke="none" visibility="hidden"></rect></g></svg></g></svg>